<?xml version="1.0" encoding="UTF-8" standalone="no"?>
<!DOCTYPE svg PUBLIC "-//W3C//DTD SVG 1.1//EN" "http://www.w3.org/Graphics/SVG/1.1/DTD/svg11.dtd">
<svg width="100%" height="100%" viewBox="0 0 147 88" version="1.1" xmlns="http://www.w3.org/2000/svg" xmlns:xlink="http://www.w3.org/1999/xlink" xml:space="preserve" xmlns:serif="http://www.serif.com/" style="fill-rule:evenodd;clip-rule:evenodd;stroke-linejoin:round;stroke-miterlimit:1.41421;">
    <g transform="matrix(1,0,0,1,-787.315,-242.326)">
        <g transform="matrix(1,0,0,1,795.556,273.81)">
            <path d="M0,0.001C0,3.582 2.903,6.484 6.484,6.484C10.064,6.484 12.968,3.582 12.968,0.001C12.968,-3.58 10.064,-6.483 6.484,-6.483C2.903,-6.483 0,-3.58 0,0.001" style="fill:white;fill-rule:nonzero;"/>
        </g>
        <g transform="matrix(1,0,0,1,934.201,330.279)">
            <path d="M0,-87.953L-31.51,-87.953L-49.967,-40.226L-68.294,-87.953L-99.803,-87.953L-99.803,-87.944L-109.408,-87.944C-112.947,-87.944 -115.815,-85.076 -115.815,-81.537L-115.815,-81.384C-115.815,-77.845 -112.947,-74.977 -109.408,-74.977L-108.056,-74.977C-104.085,-74.977 -100.866,-72.285 -100.866,-68.965L-100.866,-68.964C-100.866,-65.644 -104.085,-62.952 -108.056,-62.952L-112.742,-62.952C-116.28,-62.952 -119.148,-60.084 -119.148,-56.545L-119.148,-56.391C-119.148,-52.853 -116.28,-49.985 -112.742,-49.985L-112.23,-49.985C-108.26,-49.985 -105.041,-47.293 -105.041,-43.972C-105.041,-40.652 -108.26,-37.96 -112.23,-37.96L-130.49,-37.96C-134.028,-37.96 -136.896,-35.091 -136.896,-31.553L-136.896,-31.399C-136.896,-27.861 -134.028,-24.992 -130.49,-24.992L-107.694,-24.992C-103.724,-24.992 -100.504,-22.301 -100.504,-18.98C-100.504,-15.659 -103.724,-12.968 -107.694,-12.968L-107.862,-12.968C-111.4,-12.968 -114.269,-10.099 -114.269,-6.561L-114.269,-6.407C-114.269,-2.869 -111.4,0 -107.862,0L-94.588,0C-94.537,0 -94.49,-0.014 -94.44,-0.015L-77.127,-0.015L-77.127,-57.234L-54.978,-0.015L-44.957,-0.015L-22.677,-57.234L-22.677,-0.015L0,-0.015L0,-87.953Z" style="fill:white;fill-rule:nonzero;"/>
        </g>
        <g transform="matrix(1,0,0,1,806.92,317.312)">
            <path d="M0,12.968L-13.121,12.968C-16.702,12.968 -19.605,10.065 -19.605,6.484C-19.605,2.903 -16.702,0 -13.121,0L0,0C3.581,0 6.483,2.903 6.483,6.484C6.483,10.065 3.581,12.968 0,12.968" style="fill:white;fill-rule:nonzero;"/>
        </g>
    </g>
</svg>
