<?xml version="1.0" encoding="UTF-8" standalone="no"?>
<!DOCTYPE svg PUBLIC "-//W3C//DTD SVG 1.1//EN" "http://www.w3.org/Graphics/SVG/1.1/DTD/svg11.dtd">
<svg width="100%" height="100%" viewBox="0 0 596 119" version="1.1" xmlns="http://www.w3.org/2000/svg" xmlns:xlink="http://www.w3.org/1999/xlink" xml:space="preserve" xmlns:serif="http://www.serif.com/" style="fill-rule:evenodd;clip-rule:evenodd;stroke-linejoin:round;stroke-miterlimit:1.41421;">
    <g transform="matrix(1,0,0,1,-78.9826,-215.627)">
        <g transform="matrix(1,0,0,1,89.7106,258.323)">
            <path d="M0,0C0,4.661 3.778,8.439 8.438,8.439C13.1,8.439 16.878,4.661 16.878,0C16.878,-4.661 13.1,-8.439 8.438,-8.439C3.778,-8.439 0,-4.661 0,0" style="fill:white;fill-rule:nonzero;"/>
        </g>
        <g transform="matrix(1,0,0,1,666.205,331.821)">
            <circle cx="0" cy="-8.439" r="8.439" style="fill:white;"/>
        </g>
        <g transform="matrix(1,0,0,1,585.654,281.866)">
            <path d="M0,-14.244L-22.054,-14.244L-22.054,-38.783L0,-38.783C7.721,-38.783 14.241,-34.321 14.241,-26.598C14.241,-18.534 7.721,-14.244 0,-14.244M-128.619,-3.934C-143.912,-25.878 -188.162,-20.709 -188.162,-32.777C-188.162,-37.581 -184.386,-41.014 -175.807,-41.014C-164.48,-41.014 -151.954,-37.067 -142.343,-29.173L-128.619,-47.131L-128.619,-3.934ZM-278.936,7.721L-264.351,-35.35L-249.765,7.721L-278.936,7.721ZM55.768,33.077L35.429,33.077L21.449,7.893C32.089,4.118 44.271,-6.522 44.271,-26.427C44.271,-47.706 29.857,-64.523 4.459,-64.523L-22.054,-64.523L-51.57,-64.523L-52.854,-64.523L-52.854,-21.794L-99.103,-21.794L-99.103,-64.523L-128.619,-64.523L-128.619,-52.243C-140.468,-61.432 -155.54,-66.239 -172.718,-66.239C-202.061,-66.239 -218.363,-49.079 -218.363,-29.859C-218.363,14.243 -153.497,1.716 -153.497,17.332C-153.497,22.823 -159.676,26.77 -169.8,26.77C-185.416,26.77 -198.115,19.905 -206.352,11.669L-213.307,21.528L-245.817,-64.523L-282.883,-64.523L-315.485,22.112L-315.485,-64.523L-356.498,-64.523L-380.522,-2.402L-404.376,-64.523L-445.389,-64.523L-445.389,-64.512L-457.891,-64.512C-462.496,-64.512 -466.229,-60.779 -466.229,-56.173L-466.229,-55.973C-466.229,-51.367 -462.496,-47.634 -457.891,-47.634L-456.13,-47.634C-450.962,-47.634 -446.771,-44.13 -446.771,-39.808C-446.771,-35.486 -450.962,-31.982 -456.13,-31.982L-462.229,-31.982C-466.835,-31.982 -470.568,-28.249 -470.568,-23.643L-470.568,-23.443C-470.568,-18.837 -466.835,-15.104 -462.229,-15.104L-461.564,-15.104C-456.396,-15.104 -452.206,-11.6 -452.206,-7.278C-452.206,-2.956 -456.396,0.548 -461.564,0.548L-485.33,0.548C-489.936,0.548 -493.67,4.281 -493.67,8.887L-493.67,9.087C-493.67,13.693 -489.936,17.426 -485.33,17.426L-455.659,17.426C-450.491,17.426 -446.301,20.93 -446.301,25.252C-446.301,29.574 -450.491,33.077 -455.659,33.077L-455.878,33.077C-460.483,33.077 -464.217,36.811 -464.217,41.416L-464.217,41.617C-464.217,46.222 -460.483,49.956 -455.878,49.956L-438.601,49.956C-438.534,49.956 -438.474,49.938 -438.408,49.936L-415.873,49.936L-415.873,-24.539L-387.043,49.936L-374.002,49.936L-345.001,-24.539L-345.001,49.936L-292.494,49.936L-286.831,33.463L-241.699,33.463L-236.036,49.936L-202.573,49.936L-204.179,45.689C-195.139,49.684 -184.284,51.995 -171.173,51.995C-150.304,51.995 -135.792,44.932 -128.619,33.201L-128.619,49.936L-99.103,49.936L-99.103,3.947L-52.854,3.947L-52.854,49.936L-22.054,49.936L-22.054,11.497L-8.239,11.497L10.982,49.936L33.614,49.936C33.68,49.938 33.74,49.956 33.807,49.956L55.768,49.956C60.428,49.956 64.206,46.177 64.206,41.517C64.206,36.856 60.428,33.077 55.768,33.077" style="fill:white;fill-rule:nonzero;"/>
        </g>
        <g transform="matrix(1,0,0,1,104.502,314.944)">
            <path d="M0,16.878L-17.079,16.878C-21.74,16.878 -25.519,13.1 -25.519,8.439C-25.519,3.778 -21.74,0 -17.079,0L0,0C4.66,0 8.438,3.778 8.438,8.439C8.438,13.1 4.66,16.878 0,16.878" style="fill:white;fill-rule:nonzero;"/>
        </g>
    </g>
</svg>
